<svg xmlns="http://www.w3.org/2000/svg" version="1.1" xmlns:xlink="http://www.w3.org/1999/xlink" xmlns:svgjs="http://svgjs.dev/svgjs" width="1920" height="1080" preserveAspectRatio="none" viewBox="0 0 1920 1080"><g mask="url(&quot;#SvgjsMask1061&quot;)" fill="none"><rect width="1920" height="1080" x="0" y="0" fill="#0e2a47"></rect><path d="M 0,55 C 76.8,125.8 230.4,399 384,409 C 537.6,419 614.4,117.2 768,105 C 921.6,92.8 998.4,359.4 1152,348 C 1305.6,336.6 1382.4,33.4 1536,48 C 1689.6,62.6 1843.2,346.4 1920,421L1920 1080L0 1080z" fill="#184a7e"></path><path d="M 0,587 C 128,682.4 384,1026.6 640,1064 C 896,1101.4 1024,816.6 1280,774 C 1536,731.4 1792,835.6 1920,851L1920 1080L0 1080z" fill="#2264ab"></path></g><defs><mask id="SvgjsMask1061"><rect width="1920" height="1080" fill="#ffffff"></rect></mask></defs></svg>